<?xml version="1.0" encoding="UTF-8" standalone="no"?>
<svg
   xmlns:dc="http://purl.org/dc/elements/1.1/"
   xmlns:cc="http://creativecommons.org/ns#"
   xmlns:rdf="http://www.w3.org/1999/02/22-rdf-syntax-ns#"
   xmlns:svg="http://www.w3.org/2000/svg"
   xmlns="http://www.w3.org/2000/svg"
   xmlns:sodipodi="http://sodipodi.sourceforge.net/DTD/sodipodi-0.dtd"
   xmlns:inkscape="http://www.inkscape.org/namespaces/inkscape"
   height="512"
   viewBox="0 0 59 57"
   width="512"
   version="1.1"
   id="svg9"
   sodipodi:docname="quill.svg"
   inkscape:version="1.0.1 (3bc2e813f5, 2020-09-07)">
  <metadata
     id="metadata15">
    <rdf:RDF>
      <cc:Work
         rdf:about="">
        <dc:format>image/svg+xml</dc:format>
        <dc:type
           rdf:resource="http://purl.org/dc/dcmitype/StillImage" />
      </cc:Work>
    </rdf:RDF>
  </metadata>
  <defs
     id="defs13" />
  <sodipodi:namedview
     pagecolor="#ffffff"
     bordercolor="#666666"
     borderopacity="1"
     objecttolerance="10"
     gridtolerance="10"
     guidetolerance="10"
     inkscape:pageopacity="0"
     inkscape:pageshadow="2"
     inkscape:window-width="1920"
     inkscape:window-height="1001"
     id="namedview11"
     showgrid="false"
     inkscape:zoom="1.6210938"
     inkscape:cx="256"
     inkscape:cy="253.53254"
     inkscape:window-x="-9"
     inkscape:window-y="-9"
     inkscape:window-maximized="1"
     inkscape:current-layer="svg9"
     inkscape:document-rotation="0" />
  <g
     id="Page-1"
     fill="none"
     fill-rule="evenodd">
    <g
       id="003---Quill"
       fill="rgb(0,0,0)"
       fill-rule="nonzero">
      <path
         id="Shape"
         d="m58.08.52c-.19 4.02-1.84 12.35-11.62 18.64-.0249718.0142446-.0484264.0309979-.07.05-1.0161594-.1147936-1.9900168-.4714175-2.84-1.04-.4550261-.2440793-1.0210631-.101585-1.306288.3288453s-.1958368 1.0072424.206288 1.3311547c.5089119.3335501 1.0519917.6117947 1.62.83-2.78 1.72-4.76 2.82-6.29 3.66-1.8665126.8824621-3.5758223 2.0647909-5.06 3.5-1.7885509.2388649-3.6084335-.0063185-5.27-.71-.4835272-.2013504-1.0404963.0045141-1.2768341.4719378s-.0719586 1.0380149.3768341 1.3080622c1.3905677.6588227 2.9112749.9971373 4.45.99-.88 1.17-1.93 2.72-3.32 4.8-2.5 1.1-6.04 2.02-9.23.42-.321539-.1607695-.7044229-.1377877-1.0044229.0602885s-.4715391.5411543-.45.9000001c.021539.3588457.2328838.6789419.5544229.8397114 1.4526709.7127751 3.0519605 1.075783 4.67 1.06 1.1166903-.0085461 2.228192-.1529406 3.31-.43-3.5586867 4.0977275-9.0296419 5.9912266-14.36 4.97-.9810532-.2025834-1.89767892-.6420144-2.67-1.28.18-.77.38-1.56.61-2.37 5.69-15.13 12.64-17.2 22.26-20.06 5.9776791-1.5789473 11.7328951-3.9038799 17.13-6.92.4804877-.2761424.6461424-.8895123.37-1.37s-.8895123-.64614237-1.37-.37c-5.2602173 2.9418124-10.8714171 5.2064524-16.7 6.74-9.79 2.91-17.51 5.21-23.56 21.27l-.43.87c-.01745027.0279957-.03091314.0582872-.04.09-.13695111-.2573248-.25396104-.5247761-.35-.8-1.65053446-4.5000749-1.81178966-9.4113477-.46-14.01.02-.09.06-.18.09-.27.24579874.8942101.62326387 1.7468768 1.12 2.53.18398349.2793852.4954809.4482694.83.45.19661035.0023152.38898717-.0571467.55-.17.22135935-.1448544.37553682-.372277.42814026-.6315368s-.00074331-.5287887-.14814026-.7484632c-.79429813-1.4711963-1.28724352-3.0860173-1.45-4.75 1.64659285-3.3384029 4.054653-6.2431468 7.03-8.48-.9198657 2.1425923-1.399375 4.4483179-1.41 6.78 0 .5522847.4477153 1 1 1s1-.4477153 1-1c.0413579-3.2076784 1.0370022-6.3303807 2.86-8.97 2.7058195-1.43669659 5.6385598-2.39736354 8.67-2.84-.5321709.74973125-1.0068588 1.53864919-1.42 2.36-.2469243.4916536-.050313 1.0904244.44 1.34.1379663.0749575.2930123.1128577.45.11.3778306.0033632.7240094-.2105675.89-.55.645248-1.27714783 1.4555168-2.46397311 2.41-3.53 2.31-.14 4.64-.1 6.91-.04.81.01 1.61.03 2.41.04-.2398069.59865418-.4369656 1.21352205-.59 1.84-.1321055.53564913.1945496 1.07709118.73 1.21.5356491.1321055 1.0770912-.19454964 1.21-.73.1974811-.80352971.4860144-1.58189869.86-2.32 5.97-.09 11.93-1.07 17.25-6.4z" />
      <path
         id="path3"
         d="m11 55h-7.58l3.29-3.29c.17764986-.1788047.28122547-.4181001.29-.67.20679609-3.3114466.70878833-6.5978225 1.5-9.82-.50761515-.4094948-.9523578-.8912994-1.32-1.43-.1519903-.2205423-.28896644-.4510631-.41-.69-.74312757 1.5203562-1.61286215 2.975489-2.6 4.35-2.50662216 3.7256871-3.94846458 8.065045-4.17 12.55-.00154441.4047905.24422935.769487.62.92.11865551.0560524.24881668.0834547.38.08h10c.5522847 0 1-.4477153 1-1s-.4477153-1-1-1zm-5.27-10.3c-.33977448 1.9394557-.57677192 3.8955191-.71 5.86l-2.71 2.71c.57002056-3.0524174 1.7318518-5.9637899 3.42-8.57z" />
      <path
         id="path5"
         d="m47 55h-32c-.5522847 0-1 .4477153-1 1s.4477153 1 1 1h32c.5522847 0 1-.4477153 1-1s-.4477153-1-1-1z" />
    </g>
  </g>
  <path
     style="fill:#ffffff;stroke-width:0.617839"
     d="m 104.76049,378.47136 c -11.410645,-1.631 -18.814424,-4.22112 -26.310237,-9.20433 l -4.312295,-2.8668 0.884904,-3.79325 c 4.19762,-17.99359 11.186063,-35.99027 23.671423,-60.95879 28.691355,-57.37765 61.761535,-89.02731 115.358725,-110.40354 14.50949,-5.78684 36.43277,-12.87317 64.15422,-20.73678 30.49998,-8.65177 63.52985,-20.40788 89.13735,-31.72605 22.98832,-10.16054 53.48552,-25.94325 56.07336,-29.01872 3.62188,-4.30437 2.30233,-10.852682 -2.69572,-13.377558 -1.51112,-0.763373 -3.50621,-1.387952 -4.43353,-1.387952 -0.92732,0 -4.54657,1.531584 -8.04278,3.403517 -40.45117,21.658303 -77.63724,37.370063 -116.4676,49.209593 -7.29445,2.22411 -15.48337,4.64327 -18.19759,5.37591 -9.01671,2.43385 -36.86554,10.99016 -47.19036,14.49881 -32.43504,11.02231 -57.88494,24.15872 -78.41792,40.47678 -32.51532,25.84072 -59.261674,65.69367 -81.463353,121.38309 -2.353461,5.90329 -5.072656,12.28786 -6.042656,14.18795 l -1.763638,3.45471 -1.515141,-3.39277 c -5.070934,-11.35507 -10.44391,-33.97483 -12.140661,-51.11114 -0.813784,-8.21879 -0.813784,-28.35411 0,-36.5729 1.195993,-12.07891 5.764608,-34.93093 7.288012,-36.45434 0.266834,-0.26683 0.977573,1.11466 1.579419,3.06999 1.893083,6.1504 7.107784,16.01429 9.708222,18.36363 2.067796,1.86813 2.804393,2.15536 5.527329,2.15536 5.161614,0 8.492358,-2.8543 9.044231,-7.7505 0.260619,-2.3122 -0.197354,-3.72535 -3.424784,-10.56775 -4.483882,-9.50616 -7.716942,-19.5982 -9.348198,-29.18054 l -1.207648,-7.09398 4.078769,-7.40241 c 9.884442,-17.93891 21.043829,-32.81055 35.371927,-47.13865 5.85945,-5.85944 19.77154,-18.07898 20.1531,-17.70126 0.0745,0.0738 -0.70194,2.29061 -1.72541,4.92634 -4.67447,12.03827 -8.12022,28.27189 -9.18586,43.27636 -0.8423,11.85989 -0.27789,14.06867 4.30963,16.86526 2.72459,1.66093 5.66761,1.66854 8.59681,0.0223 3.75765,-2.11191 4.42165,-3.89908 4.98535,-13.41826 1.41185,-23.84157 8.62039,-46.75581 20.94452,-66.57768 l 3.17381,-5.104685 6.77936,-3.399977 c 17.58497,-8.819193 39.05893,-15.972549 59.94537,-19.968859 3.66445,-0.701164 6.92254,-1.274822 7.2402,-1.274822 0.31765,0 -0.8413,2.112072 -2.57545,4.693491 -1.73416,2.581424 -4.67242,7.630071 -6.52947,11.219228 -2.99593,5.790282 -3.33138,6.808163 -2.97649,9.031803 0.77135,4.833091 4.14513,7.744841 8.97375,7.744841 4.27799,0 6.18491,-1.55687 9.54914,-7.796226 3.7508,-6.956291 9.62533,-15.7824 14.78664,-22.215997 l 4.03825,-5.033703 5.35041,-0.445686 c 5.61977,-0.468124 74.00503,-0.09319 74.50671,0.408497 0.1597,0.159694 -0.68969,3.312685 -1.88752,7.006643 -1.19783,3.693963 -2.3139,7.984097 -2.48016,9.533631 -0.76106,7.092977 6.47849,12.10909 12.93969,8.965602 2.78352,-1.354222 3.66781,-2.871383 5.92062,-10.157908 1.10141,-3.562409 2.92927,-8.489638 4.06191,-10.949397 l 2.05934,-4.472289 2.66182,-0.006 c 1.46401,-0.0033 7.38086,-0.280464 13.14858,-0.615979 36.39258,-2.117005 61.7743,-8.223305 86.98106,-20.925784 15.23615,-7.677977 27.52086,-16.228608 41.71227,-29.03335 l 4.4416,-4.007603 -0.4278,5.667018 c -0.5869,7.774475 -2.54176,19.396654 -4.75278,28.256621 -12.1988,48.882725 -43.65329,91.43105 -91.31882,123.52652 l -4.69459,3.16109 -4.55843,-0.94076 c -5.75924,-1.18858 -12.96803,-3.94964 -16.92222,-6.48143 -8.52615,-5.45912 -17.7133,-0.48434 -15.68814,8.49501 0.73629,3.26458 3.17615,5.42024 9.98429,8.82127 l 6.07018,3.03237 -1.71211,1.19387 c -5.92703,4.13296 -42.24809,25.087 -55.07114,31.77117 -14.4727,7.54408 -25.57277,15.07972 -35.97097,24.42006 -4.41923,3.96964 -5.10589,4.36471 -8.27407,4.76055 -5.053,0.63133 -18.84011,-0.0727 -24.53568,-1.25287 -2.71422,-0.56242 -8.179,-2.11667 -12.14396,-3.45388 -8.30318,-2.8003 -10.60754,-2.97604 -13.51904,-1.03104 -4.40603,2.94342 -5.37441,8.85281 -2.14462,13.08727 3.36302,4.40915 26.06943,10.80405 38.36201,10.80405 h 2.1635 l -2.70781,3.54699 c -2.94302,3.85509 -15.04749,21.37388 -21.695,31.39918 l -4.15206,6.26183 -5.6526,2.15387 c -15.43813,5.88255 -24.41673,7.82975 -38.16296,8.27645 -8.23853,0.26772 -11.51425,0.118 -16.34699,-0.74718 -6.07191,-1.08702 -14.55738,-3.76035 -18.81927,-5.92898 -6.51169,-3.31342 -13.44144,0.69757 -13.44144,7.78001 0,4.15485 1.72665,6.65392 5.99123,8.67138 13.93072,6.59029 29.71838,9.37939 46.60049,8.23259 7.0125,-0.47636 16.93012,-1.91787 19.33565,-2.81041 1.52687,-0.56653 -2.96271,4.38525 -8.9853,9.91032 -18.57296,17.03869 -40.90957,27.87027 -67.56858,32.76571 -7.67079,1.4086 -29.98909,1.77364 -38.04433,0.62225 z"
     id="path17"
     transform="matrix(0.11523437,0,0,0.11523437,0,-1)" />
  <path
     style="fill:#ffffff;stroke-width:0.617839"
     d="m 5.1930609,502.14934 c -0.7062263,-0.28571 -2.0247805,-1.39977 -2.9301205,-2.4757 -1.47190182,-1.74926 -1.64553737,-2.45709 -1.64101166,-6.68965 0.0142792,-13.35408 4.19583586,-35.96695 9.88427226,-53.4518 6.734248,-20.69942 14.819394,-36.77969 29.627425,-58.92496 6.742725,-10.08368 12.967977,-20.51118 16.901471,-28.31052 l 1.678125,-3.32739 2.491863,3.94426 c 1.370519,2.16934 4.656997,6.16497 7.303279,8.87919 l 4.811418,4.93494 -0.881325,3.70121 c -5.229303,21.96098 -9.533403,49.71357 -11.432416,73.71566 -0.419694,5.30461 -1.081195,9.69767 -1.62552,10.79518 -0.504811,1.01783 -7.471497,8.44337 -15.481525,16.5012 l -14.563687,14.65061 h 33.46782 c 26.974646,0 33.85294,0.16409 35.452829,0.8458 6.368852,2.71373 7.226502,11.10457 1.492406,14.60085 -1.91322,1.16657 -3.399865,1.20301 -47.623063,1.16736 -25.106506,-0.0202 -46.2260142,-0.27055 -46.9322401,-0.55624 z M 44.045444,444.48846 c 1.683008,-17.10574 3.188153,-29.99236 4.429349,-37.92281 1.30705,-8.35121 1.469583,-10.81192 0.651822,-9.86846 -1.214897,1.40164 -8.72513,14.90764 -11.80558,21.23052 -6.78294,13.92255 -11.698688,27.55361 -15.106843,41.89034 -3.167601,13.32482 -4.165982,13.34763 9.468493,-0.21633 l 12.055808,-11.99347 z"
     id="path19"
     transform="matrix(0.11523437,0,0,0.11523437,0,-1)" />
  <path
     style="fill:#ffffff;stroke-width:0.617839"
     d="m 124.53466,500.35209 c -2.10447,-2.10447 -2.3949,-2.74749 -2.3949,-5.30241 0,-3.74378 1.47713,-6.19979 4.65358,-7.73748 2.48962,-1.20521 4.28014,-1.22064 141.66166,-1.22064 76.5271,0 140.03945,0.17986 141.13857,0.39968 2.70218,0.54044 5.91276,3.86874 6.43929,6.67542 0.54125,2.8851 -1.34424,7.00854 -3.89325,8.51428 -1.69594,1.00182 -10.3422,1.06605 -143.50736,1.06605 H 126.92956 Z"
     id="path13"
     transform="matrix(0.11523437,0,0,0.11523437,0,-1)" />
</svg>
