<?xml version="1.0" encoding="UTF-8" standalone="no"?>
<svg
   xmlns:dc="http://purl.org/dc/elements/1.1/"
   xmlns:cc="http://creativecommons.org/ns#"
   xmlns:rdf="http://www.w3.org/1999/02/22-rdf-syntax-ns#"
   xmlns:svg="http://www.w3.org/2000/svg"
   xmlns="http://www.w3.org/2000/svg"
   xmlns:sodipodi="http://sodipodi.sourceforge.net/DTD/sodipodi-0.dtd"
   xmlns:inkscape="http://www.inkscape.org/namespaces/inkscape"
   width="89.999992mm"
   height="90mm"
   viewBox="0 0 89.999992 90"
   version="1.1"
   id="svg8"
   inkscape:version="1.0.1 (3bc2e813f5, 2020-09-07)"
   sodipodi:docname="quill_button_pressed.svg">
  <defs
     id="defs2" />
  <sodipodi:namedview
     id="base"
     pagecolor="#ffffff"
     bordercolor="#666666"
     borderopacity="1.0"
     inkscape:pageopacity="0.0"
     inkscape:pageshadow="2"
     inkscape:zoom="1.4"
     inkscape:cx="153.94876"
     inkscape:cy="191.64674"
     inkscape:document-units="mm"
     inkscape:current-layer="layer1"
     inkscape:document-rotation="0"
     showgrid="false"
     inkscape:window-width="1920"
     inkscape:window-height="1001"
     inkscape:window-x="-9"
     inkscape:window-y="-9"
     inkscape:window-maximized="1"
     fit-margin-top="0"
     fit-margin-left="0"
     fit-margin-right="0"
     fit-margin-bottom="0" />
  <metadata
     id="metadata5">
    <rdf:RDF>
      <cc:Work
         rdf:about="">
        <dc:format>image/svg+xml</dc:format>
        <dc:type
           rdf:resource="http://purl.org/dc/dcmitype/StillImage" />
        <dc:title></dc:title>
      </cc:Work>
    </rdf:RDF>
  </metadata>
  <g
     inkscape:groupmode="layer"
     id="g37"
     inkscape:label="Layer 4 copy"
     style="display:none">
    <path
       id="rect35"
       style="fill:#002d87;stroke-width:0.264999"
       d="m 76.661147,2.9173575 8.126762,5.8475044 C 89.2848,12.00054 89.999992,14.460003 89.999992,20.000007 V 79.999993 C 89.999992,85.539997 85.539989,90 79.999986,90 H 20.000007 C 14.460003,90 11.673077,89.144302 8.3963828,84.67721 L 2.5164532,76.661147 C -0.76024141,72.194054 72.164256,-0.31832097 76.661147,2.9173575 Z"
       sodipodi:nodetypes="sssssssss" />
  </g>
  <g
     inkscape:groupmode="layer"
     id="layer3"
     inkscape:label="Layer 3">
    <rect
       style="fill:#0055ff;stroke-width:0.264999"
       id="rect11"
       width="79.999992"
       height="80"
       x="10"
       y="10"
       rx="10.000007"
       ry="10.000007" />
  </g>
  <g
     inkscape:groupmode="layer"
     id="layer1"
     inkscape:label="Layer 4">
    <g
       id="g53"
       transform="matrix(1.1191459,0,0,1.1508439,19.300008,17.901561)">
      <g
         id="Page-1"
         fill="none"
         fill-rule="evenodd">
        <g
           id="003---Quill"
           fill="#000000"
           fill-rule="nonzero">
          <path
             id="Shape"
             d="m 58.08,0.52 c -0.19,4.02 -1.84,12.35 -11.62,18.64 -0.02497,0.01424 -0.04843,0.031 -0.07,0.05 -1.016159,-0.114794 -1.990017,-0.471418 -2.84,-1.04 -0.455026,-0.244079 -1.021063,-0.101585 -1.306288,0.328845 -0.285225,0.430431 -0.195837,1.007243 0.206288,1.331155 0.508912,0.33355 1.051992,0.611795 1.62,0.83 -2.78,1.72 -4.76,2.82 -6.29,3.66 -1.866513,0.882462 -3.575822,2.064791 -5.06,3.5 -1.788551,0.238865 -3.608434,-0.0063 -5.27,-0.71 -0.483527,-0.20135 -1.040496,0.0045 -1.276834,0.471938 -0.236338,0.467423 -0.07196,1.038015 0.376834,1.308062 1.390568,0.658823 2.911275,0.997137 4.45,0.99 -0.88,1.17 -1.93,2.72 -3.32,4.8 -2.5,1.1 -6.04,2.02 -9.23,0.42 -0.321539,-0.16077 -0.704423,-0.137788 -1.004423,0.06029 -0.3,0.198077 -0.471539,0.541155 -0.45,0.900001 0.02154,0.358845 0.232884,0.678941 0.554423,0.839711 1.452671,0.712775 3.05196,1.075783 4.67,1.06 1.11669,-0.0085 2.228192,-0.152941 3.31,-0.43 -3.558687,4.097727 -9.029642,5.991227 -14.36,4.97 C 10.188947,42.297417 9.2723211,41.857986 8.5,41.22 8.68,40.45 8.88,39.66 9.11,38.85 14.8,23.72 21.75,21.65 31.37,18.79 37.347679,17.211053 43.102895,14.88612 48.5,11.87 48.980488,11.593858 49.146142,10.980488 48.87,10.5 48.593858,10.019512 47.980488,9.8538576 47.5,10.13 42.239783,13.071812 36.628583,15.336452 30.8,16.87 21.01,19.78 13.29,22.08 7.24,38.14 L 6.81,39.01 C 6.79255,39.038 6.779087,39.06829 6.77,39.1 6.6330489,38.842675 6.516039,38.575224 6.42,38.3 4.7694655,33.799925 4.6082103,28.888652 5.96,24.29 5.98,24.2 6.02,24.11 6.05,24.02 6.2957987,24.91421 6.6732639,25.766877 7.17,26.55 7.3539835,26.829385 7.6654809,26.998269 8,27 8.1966103,27.002315 8.3889872,26.942853 8.55,26.83 8.7713593,26.685146 8.9255368,26.457723 8.9781403,26.198463 9.0307437,25.939203 8.9773969,25.669675 8.83,25.45 8.0357019,23.978804 7.5427565,22.363983 7.38,20.7 9.0265928,17.361597 11.434653,14.456853 14.41,12.22 13.490134,14.362592 13.010625,16.668318 13,19 c 0,0.552285 0.447715,1 1,1 0.552285,0 1,-0.447715 1,-1 0.04136,-3.207678 1.037002,-6.330381 2.86,-8.97 2.705819,-1.4366966 5.63856,-2.3973635 8.67,-2.84 -0.532171,0.7497313 -1.006859,1.5386492 -1.42,2.36 -0.246924,0.491654 -0.05031,1.090424 0.44,1.34 0.137966,0.07496 0.293012,0.112858 0.45,0.11 0.377831,0.0034 0.724009,-0.210567 0.89,-0.55 0.645248,-1.2771478 1.455517,-2.4639731 2.41,-3.53 2.31,-0.14 4.64,-0.1 6.91,-0.04 0.81,0.01 1.61,0.03 2.41,0.04 -0.239807,0.5986542 -0.436966,1.2135221 -0.59,1.84 -0.132106,0.5356491 0.19455,1.0770912 0.73,1.21 0.535649,0.132106 1.077091,-0.1945496 1.21,-0.73 0.197481,-0.8035297 0.486014,-1.5818987 0.86,-2.32 5.97,-0.09 11.93,-1.07 17.25,-6.4 z" />
          <path
             id="path3"
             d="M 11,55 H 3.42 L 6.71,51.71 C 6.8876499,51.531195 6.9912255,51.2919 7,51.04 7.2067961,47.728553 7.7087883,44.442177 8.5,41.22 7.9923848,40.810505 7.5476422,40.328701 7.18,39.79 7.0280097,39.569458 6.8910336,39.338937 6.77,39.1 6.0268724,40.620356 5.1571378,42.075489 4.17,43.45 1.6633778,47.175687 0.22153542,51.515045 0,56 -0.00154441,56.40479 0.24422935,56.769487 0.62,56.92 0.73865551,56.97605 0.86881668,57.00346 1,57 h 10 c 0.552285,0 1,-0.447715 1,-1 0,-0.552285 -0.447715,-1 -1,-1 z M 5.73,44.7 C 5.3902255,46.639456 5.1532281,48.595519 5.02,50.56 L 2.31,53.27 C 2.8800206,50.217583 4.0418518,47.30621 5.73,44.7 Z" />
          <path
             id="path5"
             d="M 47,55 H 15 c -0.552285,0 -1,0.447715 -1,1 0,0.552285 0.447715,1 1,1 h 32 c 0.552285,0 1,-0.447715 1,-1 0,-0.552285 -0.447715,-1 -1,-1 z" />
        </g>
      </g>
      <path
         style="fill:#ffffff;stroke-width:0.617839"
         d="m 104.76049,378.47136 c -11.410645,-1.631 -18.814424,-4.22112 -26.310237,-9.20433 l -4.312295,-2.8668 0.884904,-3.79325 c 4.19762,-17.99359 11.186063,-35.99027 23.671423,-60.95879 28.691355,-57.37765 61.761535,-89.02731 115.358725,-110.40354 14.50949,-5.78684 36.43277,-12.87317 64.15422,-20.73678 30.49998,-8.65177 63.52985,-20.40788 89.13735,-31.72605 22.98832,-10.16054 53.48552,-25.94325 56.07336,-29.01872 3.62188,-4.30437 2.30233,-10.852682 -2.69572,-13.377558 -1.51112,-0.763373 -3.50621,-1.387952 -4.43353,-1.387952 -0.92732,0 -4.54657,1.531584 -8.04278,3.403517 -40.45117,21.658303 -77.63724,37.370063 -116.4676,49.209593 -7.29445,2.22411 -15.48337,4.64327 -18.19759,5.37591 -9.01671,2.43385 -36.86554,10.99016 -47.19036,14.49881 -32.43504,11.02231 -57.88494,24.15872 -78.41792,40.47678 -32.51532,25.84072 -59.261674,65.69367 -81.463353,121.38309 -2.353461,5.90329 -5.072656,12.28786 -6.042656,14.18795 l -1.763638,3.45471 -1.515141,-3.39277 c -5.070934,-11.35507 -10.44391,-33.97483 -12.140661,-51.11114 -0.813784,-8.21879 -0.813784,-28.35411 0,-36.5729 1.195993,-12.07891 5.764608,-34.93093 7.288012,-36.45434 0.266834,-0.26683 0.977573,1.11466 1.579419,3.06999 1.893083,6.1504 7.107784,16.01429 9.708222,18.36363 2.067796,1.86813 2.804393,2.15536 5.527329,2.15536 5.161614,0 8.492358,-2.8543 9.044231,-7.7505 0.260619,-2.3122 -0.197354,-3.72535 -3.424784,-10.56775 -4.483882,-9.50616 -7.716942,-19.5982 -9.348198,-29.18054 l -1.207648,-7.09398 4.078769,-7.40241 c 9.884442,-17.93891 21.043829,-32.81055 35.371927,-47.13865 5.85945,-5.85944 19.77154,-18.07898 20.1531,-17.70126 0.0745,0.0738 -0.70194,2.29061 -1.72541,4.92634 -4.67447,12.03827 -8.12022,28.27189 -9.18586,43.27636 -0.8423,11.85989 -0.27789,14.06867 4.30963,16.86526 2.72459,1.66093 5.66761,1.66854 8.59681,0.0223 3.75765,-2.11191 4.42165,-3.89908 4.98535,-13.41826 1.41185,-23.84157 8.62039,-46.75581 20.94452,-66.57768 l 3.17381,-5.104685 6.77936,-3.399977 c 17.58497,-8.819193 39.05893,-15.972549 59.94537,-19.968859 3.66445,-0.701164 6.92254,-1.274822 7.2402,-1.274822 0.31765,0 -0.8413,2.112072 -2.57545,4.693491 -1.73416,2.581424 -4.67242,7.630071 -6.52947,11.219228 -2.99593,5.790282 -3.33138,6.808163 -2.97649,9.031803 0.77135,4.833091 4.14513,7.744841 8.97375,7.744841 4.27799,0 6.18491,-1.55687 9.54914,-7.796226 3.7508,-6.956291 9.62533,-15.7824 14.78664,-22.215997 l 4.03825,-5.033703 5.35041,-0.445686 c 5.61977,-0.468124 74.00503,-0.09319 74.50671,0.408497 0.1597,0.159694 -0.68969,3.312685 -1.88752,7.006643 -1.19783,3.693963 -2.3139,7.984097 -2.48016,9.533631 -0.76106,7.092977 6.47849,12.10909 12.93969,8.965602 2.78352,-1.354222 3.66781,-2.871383 5.92062,-10.157908 1.10141,-3.562409 2.92927,-8.489638 4.06191,-10.949397 l 2.05934,-4.472289 2.66182,-0.006 c 1.46401,-0.0033 7.38086,-0.280464 13.14858,-0.615979 36.39258,-2.117005 61.7743,-8.223305 86.98106,-20.925784 15.23615,-7.677977 27.52086,-16.228608 41.71227,-29.03335 l 4.4416,-4.007603 -0.4278,5.667018 c -0.5869,7.774475 -2.54176,19.396654 -4.75278,28.256621 -12.1988,48.882725 -43.65329,91.43105 -91.31882,123.52652 l -4.69459,3.16109 -4.55843,-0.94076 c -5.75924,-1.18858 -12.96803,-3.94964 -16.92222,-6.48143 -8.52615,-5.45912 -17.7133,-0.48434 -15.68814,8.49501 0.73629,3.26458 3.17615,5.42024 9.98429,8.82127 l 6.07018,3.03237 -1.71211,1.19387 c -5.92703,4.13296 -42.24809,25.087 -55.07114,31.77117 -14.4727,7.54408 -25.57277,15.07972 -35.97097,24.42006 -4.41923,3.96964 -5.10589,4.36471 -8.27407,4.76055 -5.053,0.63133 -18.84011,-0.0727 -24.53568,-1.25287 -2.71422,-0.56242 -8.179,-2.11667 -12.14396,-3.45388 -8.30318,-2.8003 -10.60754,-2.97604 -13.51904,-1.03104 -4.40603,2.94342 -5.37441,8.85281 -2.14462,13.08727 3.36302,4.40915 26.06943,10.80405 38.36201,10.80405 h 2.1635 l -2.70781,3.54699 c -2.94302,3.85509 -15.04749,21.37388 -21.695,31.39918 l -4.15206,6.26183 -5.6526,2.15387 c -15.43813,5.88255 -24.41673,7.82975 -38.16296,8.27645 -8.23853,0.26772 -11.51425,0.118 -16.34699,-0.74718 -6.07191,-1.08702 -14.55738,-3.76035 -18.81927,-5.92898 -6.51169,-3.31342 -13.44144,0.69757 -13.44144,7.78001 0,4.15485 1.72665,6.65392 5.99123,8.67138 13.93072,6.59029 29.71838,9.37939 46.60049,8.23259 7.0125,-0.47636 16.93012,-1.91787 19.33565,-2.81041 1.52687,-0.56653 -2.96271,4.38525 -8.9853,9.91032 -18.57296,17.03869 -40.90957,27.87027 -67.56858,32.76571 -7.67079,1.4086 -29.98909,1.77364 -38.04433,0.62225 z"
         id="path17"
         transform="matrix(0.11523437,0,0,0.11523437,0,-1)" />
      <path
         style="fill:#ffffff;stroke-width:0.617839"
         d="m 5.1930609,502.14934 c -0.7062263,-0.28571 -2.0247805,-1.39977 -2.9301205,-2.4757 -1.47190182,-1.74926 -1.64553737,-2.45709 -1.64101166,-6.68965 0.0142792,-13.35408 4.19583586,-35.96695 9.88427226,-53.4518 6.734248,-20.69942 14.819394,-36.77969 29.627425,-58.92496 6.742725,-10.08368 12.967977,-20.51118 16.901471,-28.31052 l 1.678125,-3.32739 2.491863,3.94426 c 1.370519,2.16934 4.656997,6.16497 7.303279,8.87919 l 4.811418,4.93494 -0.881325,3.70121 c -5.229303,21.96098 -9.533403,49.71357 -11.432416,73.71566 -0.419694,5.30461 -1.081195,9.69767 -1.62552,10.79518 -0.504811,1.01783 -7.471497,8.44337 -15.481525,16.5012 l -14.563687,14.65061 h 33.46782 c 26.974646,0 33.85294,0.16409 35.452829,0.8458 6.368852,2.71373 7.226502,11.10457 1.492406,14.60085 -1.91322,1.16657 -3.399865,1.20301 -47.623063,1.16736 -25.106506,-0.0202 -46.2260142,-0.27055 -46.9322401,-0.55624 z M 44.045444,444.48846 c 1.683008,-17.10574 3.188153,-29.99236 4.429349,-37.92281 1.30705,-8.35121 1.469583,-10.81192 0.651822,-9.86846 -1.214897,1.40164 -8.72513,14.90764 -11.80558,21.23052 -6.78294,13.92255 -11.698688,27.55361 -15.106843,41.89034 -3.167601,13.32482 -4.165982,13.34763 9.468493,-0.21633 l 12.055808,-11.99347 z"
         id="path19"
         transform="matrix(0.11523437,0,0,0.11523437,0,-1)" />
      <path
         style="fill:#ffffff;stroke-width:0.617839"
         d="m 124.53466,500.35209 c -2.10447,-2.10447 -2.3949,-2.74749 -2.3949,-5.30241 0,-3.74378 1.47713,-6.19979 4.65358,-7.73748 2.48962,-1.20521 4.28014,-1.22064 141.66166,-1.22064 76.5271,0 140.03945,0.17986 141.13857,0.39968 2.70218,0.54044 5.91276,3.86874 6.43929,6.67542 0.54125,2.8851 -1.34424,7.00854 -3.89325,8.51428 -1.69594,1.00182 -10.3422,1.06605 -143.50736,1.06605 H 126.92956 Z"
         id="path13"
         transform="matrix(0.11523437,0,0,0.11523437,0,-1)" />
    </g>
  </g>
</svg>
